<?xml version="1.0" standalone="no"?>
<svg
  width="600"
  height="600"
  viewBox="0 0 600 600"
  xmlns="http://www.w3.org/2000/svg"
>
  <g transform="translate(300,300)">
    <path d="M46.9,-63.4C59.8,-55.3,68.4,-40.1,102.8,-14.5C137.3,11.2,197.5,47.5,190.2,59.3C183,71.2,108.2,58.7,65.3,74.2C22.3,89.7,11.2,133.4,-16.4,155.9C-43.9,178.4,-87.8,179.8,-97,153.3C-106.2,126.8,-80.7,72.4,-94.4,30.6C-108.1,-11.2,-161,-40.4,-161.7,-57C-162.4,-73.6,-110.9,-77.7,-75.2,-78.4C-39.6,-79.1,-19.8,-76.6,-1.4,-74.7C17,-72.8,34.1,-71.6,46.9,-63.4Z" fill="#27debf" />
  </g>
</svg>
  