<?xml version="1.0" standalone="no"?>
<svg
  width="600"
  height="600"
  viewBox="0 0 600 600"
  xmlns="http://www.w3.org/2000/svg"
>
  <g transform="translate(300,300)">
    <path d="M102.6,-123.4C128.5,-122.5,141.8,-86.4,165,-46.2C188.3,-6,221.6,38.4,205.5,60.2C189.3,81.9,123.8,81,81.3,87.5C38.8,94.1,19.4,108,6.7,98.9C-6.1,89.7,-12.1,57.4,-44.6,47.6C-77.1,37.8,-136.1,50.6,-179.8,31.2C-223.5,11.8,-252,-39.7,-220.6,-51.7C-189.2,-63.7,-97.8,-36.3,-51.1,-30.5C-4.3,-24.6,-2.2,-40.3,18.1,-65.2C38.4,-90.2,76.8,-124.4,102.6,-123.4Z" fill="#27debf" />
  </g>
</svg>
  