<?xml version="1.0" standalone="no"?>
<svg
  width="600"
  height="600"
  viewBox="0 0 600 600"
  xmlns="http://www.w3.org/2000/svg"
>
  <g transform="translate(300,300)">
    <path d="M138.6,-170.2C167.2,-170.1,169.2,-112.9,160,-69C150.9,-25.1,130.6,5.4,125.4,46.7C120.2,88.1,130,140.3,111.6,178C93.3,215.7,46.6,238.8,13,220.9C-20.6,203,-41.1,144,-66.2,108.4C-91.2,72.9,-120.8,60.9,-120.3,43.5C-119.8,26.2,-89.4,3.5,-90,-40C-90.6,-83.4,-122.3,-147.7,-112.5,-153.8C-102.7,-160,-51.3,-108,1.9,-110.5C55.1,-113.1,110.1,-170.2,138.6,-170.2Z" fill="#27debf" />
  </g>
</svg>
  