<?xml version="1.0" standalone="no"?>
<svg
  width="600"
  height="600"
  viewBox="0 0 600 600"
  xmlns="http://www.w3.org/2000/svg"
>
  <g transform="translate(300,300)">
    <path d="M70.3,-117.1C95.2,-78.7,122.3,-63.6,135.2,-40.1C148,-16.6,146.8,15.3,148.4,60C150.1,104.6,154.7,161.9,130.4,167.2C106.2,172.5,53.1,125.7,2.5,122.2C-48,118.7,-96,158.5,-123.7,154.3C-151.5,150.2,-159,102.1,-175.2,56C-191.5,9.9,-216.5,-34.3,-188.8,-43.3C-161,-52.3,-80.5,-26.2,-40.3,-59.6C0,-93,0,-186,11.4,-201.6C22.7,-217.3,45.5,-155.6,70.3,-117.1Z" fill="#27debf" />
  </g>
</svg>
  