<?xml version="1.0" standalone="no"?>
<svg
  width="600"
  height="600"
  viewBox="0 0 600 600"
  xmlns="http://www.w3.org/2000/svg"
>
  <g transform="translate(300,300)">
    <path d="M10.5,-43.4C15.1,-11.1,21.3,-10,58.7,4.6C96.1,19.3,164.5,47.5,188.8,88.8C213.1,130,193.3,184.3,154.4,183.9C115.6,183.4,57.8,128.2,12.7,110.7C-32.3,93.2,-64.7,113.3,-106.8,114.9C-149,116.4,-201,99.3,-208.6,69.3C-216.2,39.3,-179.4,-3.5,-161.5,-50.5C-143.5,-97.5,-144.3,-148.7,-120.6,-174.8C-96.8,-200.9,-48.4,-201.9,-22.7,-170.7C2.9,-139.4,5.9,-75.8,10.5,-43.4Z" fill="#27debf" />
  </g>
</svg>
  