<?xml version="1.0" standalone="no"?>
<svg
  width="600"
  height="600"
  viewBox="0 0 600 600"
  xmlns="http://www.w3.org/2000/svg"
>
  <g transform="translate(300,300)">
    <path d="M80.2,-126.8C93.1,-101.1,85.1,-63.1,90.7,-32.6C96.4,-2.1,115.7,20.9,120.1,48.8C124.5,76.7,114,109.6,91.5,110.2C69,110.9,34.5,79.5,0,79.5C-34.5,79.5,-69,110.9,-108.6,115.8C-148.2,120.7,-193,99,-217.3,61.7C-241.6,24.5,-245.4,-28.2,-223.2,-65.1C-201,-102,-152.8,-123,-111.3,-139.3C-69.8,-155.7,-34.9,-167.3,-0.6,-166.5C33.7,-165.7,67.4,-152.4,80.2,-126.8Z" fill="#27debf" />
  </g>
</svg>
  