<svg width="801" height="1001" viewBox="0 0 801 1001" fill="none" xmlns="http://www.w3.org/2000/svg">
<path d="M460.456 4.39777C266.922 -31.2823 25.1106 210.546 13.1983 228.904C1.28605 247.262 -3.57516 300.051 5.25682 342.496C29.6054 459.511 150.219 452.981 223.29 544.437C261.99 592.874 309.549 613.02 312.814 676.387C316.352 745.064 215.596 756.489 223.29 824.783C229.82 882.739 268.214 906.027 312.814 940.288C384.443 995.313 449.246 1015.24 534.457 990.008C590.528 973.406 615.896 944.656 658.996 903.189C843.478 725.696 826.591 474.145 729.027 231.199C707.181 176.8 697.5 142.035 658.996 99.2489C600.305 34.0291 544.249 19.846 460.456 4.39777Z" fill="#FFE7CC"/>
</svg>
