<svg width="801" height="1001" viewBox="0 0 801 1001" fill="none" xmlns="http://www.w3.org/2000/svg">
<path d="M456.07 6.00474C209.376 -30.26 37.3429 133.509 22.1584 152.168C6.97401 170.827 -6.12455 231.478 5.13345 274.618C36.1702 393.551 -5.39642 415.438 87.7462 508.393C137.076 557.624 197.699 578.1 201.861 642.506C206.371 712.308 175.385 689.006 149.617 763.254C129.86 820.181 92.7665 944.177 149.617 979C240.922 1034.93 367.239 968.492 475.856 942.848C547.329 925.974 562.64 908.415 617.579 866.268C852.735 685.867 835.811 444.577 711.447 197.649C683.601 142.359 692.215 138.123 643.134 94.6356C566.964 27.1445 562.88 21.7061 456.07 6.00474Z" fill="#FFE7CC"/>
</svg>
