<svg width="801" height="1001" viewBox="0 0 801 1001" fill="none" xmlns="http://www.w3.org/2000/svg">
<path d="M490.828 5.45142C246.735 -29.2092 59.6704 148.121 44.646 165.955C29.6217 183.789 -8.83541 259.591 2.3039 300.823C33.0134 414.494 87.496 407.548 179.657 496.391C228.467 543.445 199.565 557.531 179.657 617C156.647 685.734 124.634 743.113 134.338 809.456C142.573 865.756 123.405 954.511 179.657 987.793C269.999 1041.25 445.276 916.446 552.748 891.937C623.467 875.809 708.825 823.556 729.189 765.986C824.555 496.391 808.164 496.391 771.286 234.318C763.258 177.264 777.752 105.487 729.189 63.9232C655.165 0.566842 596.513 20.4583 490.828 5.45142Z" fill="#FFE7CC"/>
</svg>
