<?xml version="1.0" standalone="no"?>
<svg
  width="600"
  height="600"
  viewBox="0 0 600 600"
  xmlns="http://www.w3.org/2000/svg"
>
  <g transform="translate(300,300)">
    <path d="M120.2,-166.4C153.6,-165.6,176.8,-128.5,171.3,-92.4C165.7,-56.3,131.4,-21.2,127.9,19.9C124.4,61,151.7,108.1,141,124.3C130.3,140.6,81.5,125.9,40.1,139.4C-1.3,152.9,-35.3,194.5,-61.5,193.9C-87.8,193.4,-106.2,150.7,-111.3,113.8C-116.5,76.8,-108.2,45.6,-118.1,13.6C-127.9,-18.4,-155.8,-51.2,-155.6,-79.2C-155.5,-107.3,-127.2,-130.6,-96.6,-132.6C-66,-134.6,-33,-115.3,5.2,-123.4C43.4,-131.6,86.9,-167.2,120.2,-166.4Z" fill="#ffe7cc" />
  </g>
</svg>
  