<?xml version="1.0" standalone="no"?>
<svg
  width="600"
  height="600"
  viewBox="0 0 600 600"
  xmlns="http://www.w3.org/2000/svg"
>
  <g transform="translate(300,300)">
    <path d="M93.3,-145.2C133.6,-119.3,187.8,-114.9,198.1,-90.9C208.5,-66.9,175,-23.3,142.2,1.7C109.5,26.7,77.4,33,62.6,59.7C47.9,86.3,50.4,133.4,38.5,141.8C26.5,150.3,0,120.3,-24.8,104.1C-49.6,87.9,-72.8,85.5,-91.3,73.8C-109.8,62,-123.7,40.9,-148,8.6C-172.4,-23.6,-207.2,-67.1,-201.7,-97.6C-196.3,-128.1,-150.6,-145.6,-110.2,-171.6C-69.9,-197.5,-35,-231.7,-4.2,-225.1C26.5,-218.6,53,-171.1,93.3,-145.2Z" fill="#ffe7cc" />
  </g>
</svg>
  