<?xml version="1.0" standalone="no"?>
<svg
  width="600"
  height="600"
  viewBox="0 0 600 600"
  xmlns="http://www.w3.org/2000/svg"
>
  <g transform="translate(300,300)">
    <path d="M62.8,-92C81.6,-85.6,97.2,-68.6,125,-45.9C152.7,-23.2,192.7,5.1,208.1,43.4C223.6,81.7,214.6,129.9,180.6,140.6C146.6,151.4,87.7,124.6,46.1,119.9C4.5,115.1,-19.7,132.4,-33.7,124.1C-47.7,115.7,-51.4,81.8,-63.4,59.6C-75.4,37.4,-95.6,27,-127.9,0.1C-160.3,-26.8,-204.8,-70.3,-194.4,-87C-184,-103.6,-118.8,-93.5,-77.2,-89.5C-35.7,-85.5,-17.8,-87.8,2.1,-91C22,-94.2,44,-98.4,62.8,-92Z" fill="#ffe7cc" />
  </g>
</svg>
  