<svg width="801" height="1001" viewBox="0 0 801 1001" fill="none" xmlns="http://www.w3.org/2000/svg">
<path d="M295.9 5.38303C218.557 31.5678 148.953 108.087 112.164 188.548C90.0183 236.983 -32.8449 724.032 9.78908 790.501C52.423 856.971 214.346 679.802 243.652 703.809C272.957 727.816 265.524 883.516 321.354 899.919C363.911 912.423 384.789 857.414 432.108 908.544C479.427 959.674 502.016 1023.21 547.203 992.3C606.952 951.434 741.006 916.855 769.987 862.967C854.779 705.302 735.98 513.035 755.345 342.602C774.71 172.168 656.68 153.536 569.817 151.23C477.131 148.768 404.521 -31.3915 295.9 5.38303Z" fill="#FFE7CC"/>
</svg>
