<svg width="801" height="1001" viewBox="0 0 801 1001" fill="none" xmlns="http://www.w3.org/2000/svg">
<path d="M269.283 244.795C200.551 288.539 95.6959 150.05 44.8121 244.795C14.181 301.83 -28.5864 344.854 30.3827 423.124C89.3517 501.394 9.81953 678.741 9.81953 787.114C9.81953 895.487 120.521 863.271 197.743 882.586C256.605 897.309 285.483 832.535 350.932 892.742C416.381 952.95 447.626 1027.76 510.127 991.368C592.768 943.247 565.905 664.5 605.99 601.045C723.27 415.389 771.232 427.017 798.017 226.325C824.801 25.6334 661.549 3.69311 541.405 0.977137C413.206 -1.92092 338.015 201.051 269.283 244.795Z" fill="#FFE7CC"/>
</svg>
