<svg width="800" height="1001" viewBox="0 0 800 1001" fill="none" xmlns="http://www.w3.org/2000/svg">
<path d="M209.686 44.7248C141.013 79.5674 94.6787 258.975 43.8388 334.44C13.2341 379.869 -29.4965 414.138 29.4217 476.481C88.34 538.824 230.734 513.815 230.734 600.136C230.734 686.456 132.531 832.017 209.686 847.402C268.498 859.129 230.885 937.048 296.278 985.004C361.671 1032.96 446.306 958.08 508.753 929.093C591.323 890.764 602.862 775.354 642.912 724.811C760.091 576.934 769.633 479.581 796.395 319.728C823.156 159.876 696.077 3.10574 576.037 0.942435C447.949 -1.3659 278.359 9.88221 209.686 44.7248Z" fill="#FFE7CC"/>
</svg>
