<svg width="800" height="1000" viewBox="0 0 800 1000" fill="none" xmlns="http://www.w3.org/2000/svg">
<path d="M283.863 93.7897C121.477 153.53 34.4753 215.972 7.5345 258.3C-19.4063 300.628 32.8372 352.715 55.4842 404.798C149.867 621.856 422.274 505.666 422.274 619.141C422.274 732.617 328.846 714.305 328.846 770.442C328.846 826.58 347.383 833.484 422.274 896.527C497.164 959.569 550.304 995.293 604.433 999.796C658.561 1004.3 705.133 933.55 751 867.107C885.198 672.71 697.86 428.213 728.508 218.073C759.157 7.93221 655.348 -2.87491 622.476 0.427316C589.603 3.72954 446.249 34.0498 283.863 93.7897Z" fill="#FFE7CC"/>
</svg>
