<svg width="801" height="1001" viewBox="0 0 801 1001" fill="none" xmlns="http://www.w3.org/2000/svg">
<path d="M278.171 60.4424C213.753 98.3686 91.6775 20.5089 43.9876 102.653C15.2792 152.102 -11.2801 370.662 43.9876 438.522C99.2553 506.383 0.5 554.708 0.5 648.668C0.5 742.627 110.323 983.677 182.698 1000.42C237.866 1013.19 304.926 721.973 366.267 774.173C427.608 826.373 578.241 890.366 636.818 858.813C714.273 817.092 708.968 646.041 746.537 591.025C856.456 430.061 760.186 370.388 785.29 196.388C810.393 22.3881 657.387 3.3658 544.784 1.01104C424.633 -1.50158 342.589 22.5162 278.171 60.4424Z" fill="#FFE7CC"/>
</svg>
